<svg version="1.2" xmlns="http://www.w3.org/2000/svg" viewBox="0 0 1024 1024" width="512" height="512">
	<defs>
		<radialGradient id="g1" cx="0" cy="0" r="1" gradientUnits="userSpaceOnUse" gradientTransform="matrix(160.757,0,0,157.645,612.57,851.195)">
			<stop offset="0" stop-color="#88d2d7"/>
			<stop offset="1" stop-color="#000000"/>
		</radialGradient>
		<radialGradient id="g2" cx="0" cy="0" r="1" gradientUnits="userSpaceOnUse" gradientTransform="matrix(-272.408,244.874,-249.708,-267.135,395.116,656.061)">
			<stop offset="0" stop-color="#fefef9"/>
			<stop offset=".588" stop-color="#b3e1ec"/>
			<stop offset="1" stop-color="#88d2d7"/>
		</radialGradient>
		<radialGradient id="g3" cx="0" cy="0" r="1" gradientUnits="userSpaceOnUse" gradientTransform="matrix(338.849,-2.792,2.847,332.29,653.351,582.7)">
			<stop offset="0" stop-color="#fefef9"/>
			<stop offset=".588" stop-color="#b3e1ec"/>
			<stop offset="1" stop-color="#88d2d7"/>
		</radialGradient>
		<radialGradient id="g4" cx="0" cy="0" r="1" gradientUnits="userSpaceOnUse" gradientTransform="matrix(112.174,0,0,110.003,577.694,543.261)">
			<stop offset="0" stop-color="#88d2d7"/>
			<stop offset="1" stop-color="#000000"/>
		</radialGradient>
		<radialGradient id="g5" cx="0" cy="0" r="1" gradientUnits="userSpaceOnUse" gradientTransform="matrix(248.246,219.792,-224.131,243.441,359.677,123.105)">
			<stop offset="0" stop-color="#fefef9"/>
			<stop offset=".588" stop-color="#b3e1ec"/>
			<stop offset="1" stop-color="#88d2d7"/>
		</radialGradient>
		<radialGradient id="g6" cx="0" cy="0" r="1" gradientUnits="userSpaceOnUse" gradientTransform="matrix(107.517,0,0,105.436,518.835,186.792)">
			<stop offset="0" stop-color="#88d2d7"/>
			<stop offset="1" stop-color="#000000"/>
		</radialGradient>
		<radialGradient id="g7" cx="0" cy="0" r="1" gradientUnits="userSpaceOnUse" gradientTransform="matrix(-153.222,69.563,-70.936,-150.256,595.171,80.006)">
			<stop offset="0" stop-color="#fefef9"/>
			<stop offset=".494" stop-color="#c0e5ee"/>
			<stop offset=".588" stop-color="#b3e1ec"/>
			<stop offset="1" stop-color="#88d2d7"/>
		</radialGradient>
		<radialGradient id="g8" cx="0" cy="0" r="1" fx=".337" fy="-0.942" gradientUnits="userSpaceOnUse" gradientTransform="matrix(-45.404,121.052,-123.441,-44.525,599.431,60.509)">
			<stop offset="0" stop-color="#88d2d7"/>
			<stop offset="1" stop-color="#000000"/>
		</radialGradient>
	</defs>
	<style>
		.s0 { fill: url(#g1) } 
		.s1 { fill: url(#g2) } 
		.s2 { fill: url(#g3) } 
		.s3 { fill: url(#g4) } 
		.s4 { fill: url(#g5) } 
		.s5 { fill: url(#g6) } 
		.s6 { fill: url(#g7) } 
		.s7 { fill: url(#g8) } 
	</style>
	<g id="Layer 2">
		<path id="&lt;Path&gt;" class="s0" d="m421.4 856.38c150.31-90.09 188.08-30.04 215.6 28.17 24.56 51.94 59.66 100.94 125.41 83.87 49.26-12.8 55.02-59.47 14.47-120.07-60.93-91.06-205.63-164.78-279.39-81.4-62.05 70.14-76.09 89.43-76.09 89.43z"/>
	</g>
	<g id="Layer 1">
		<path id="&lt;Path&gt;" class="s1" d="m686.92 531.82c-51.14-104.34-226.47-263.12-344.57 30.62-117.12 291.31-158.28 345.92-87.66 395.83 95.46 67.46 208.2-223.43 320.21-224.57 108.7-1.1 187.51 94.14 187.51 94.14 0 0-45.38-79.57-96.19-128.83-71.83-69.65-126.62-50.37-192.37-3.87-19.2 13.58-96.89 78.9-60.58-11.57 16.63-41.45 46.53-160.2 100.76-194.85 78.35-50.05 172.89 43.1 172.89 43.1z"/>
	</g>
	<g id="Layer 9">
		<path id="&lt;Path&gt;" class="s2" d="m628.31 449.55c-60.06-57.04-159.41-64.85-261.57 192.56-102.16 257.41-17.03 226.8 95.06 107.14 112.09-119.66 179.94-66.65 233.28-18.72 0 0-101.17-143.88-207.41-44.84-109.97 102.52-84.37 11.43-49.99-75.58 43.99-111.31 105.19-189.76 200.31-118.59 44.53 33.32 48.93 40.3 48.93 40.3 0 0-20.12-45.73-58.61-82.27z"/>
	</g>
	<g id="Layer 8">
		<path id="&lt;Path&gt;" class="s3" d="m440.74 605.88c50.46-159.95 149.22-182.96 246.18-74.06 96.96 108.9-90.33 114.47-105.93 40.72-15.61-73.74-52.4-52.87-73.96-37.56-21.56 15.3-66.29 70.9-66.29 70.9z"/>
	</g>
	<g id="Layer 5">
		<path id="&lt;Path&gt;" class="s4" d="m408.13 87.8c-105.11 83.6-55.93 299.41 144.25 256.04 114.28-24.76 148.86-189.24 44.63-263.02 0 0 65.91 83.69 0.27 165.27-43.42 53.96-127.74 55.09-175.88 7.88-83.75-82.15-13.27-166.17-13.27-166.17z"/>
	</g>
	<g id="Layer 6">
		<path id="&lt;Path&gt;" class="s5" d="m484.15 161.34c-88.12 21.36-79.77 80.67-62.87 96.06 46.41 42.29 120.3 49.41 169-3.43 40.06-43.48 54.91-112.36 6.73-171.76 0 0 23.94 60.37-34.88 128.72-33.64 39.09-71.18 36.69-89.03 8.69-21.26-33.35 11.05-58.28 11.05-58.28z"/>
	</g>
	<g id="Layer 4">
		<path id="&lt;Path&gt;" class="s6" d="m597.01 80.82c-78.45-56.84-163.32-16.05-188.88 6.98-52.74 47.5-29.42 142.65 13.15 169.6 0 0-46.06-64.28 59.93-95.19 131.92-38.47 115.8-81.39 115.8-81.39z"/>
	</g>
	<g id="Layer 7">
		<path id="&lt;Path&gt;" class="s7" d="m545.36 226.88c15-21.6 10.65-66.07-38.33-72.28 0 0 98.73-32.75 89.98-73.78 0 0 14.01 39.74-5.78 83.84-19.8 44.1-45.87 62.22-45.87 62.22z"/>
	</g>
</svg>